<?xml version="1.0" encoding="utf-8"?>
<!DOCTYPE svg PUBLIC "-//W3C//DTD SVG 1.1//EN" "http://www.w3.org/Graphics/SVG/1.1/DTD/svg11.dtd">
<svg version="1.1" xmlns="http://www.w3.org/2000/svg" xmlns:xlink="http://www.w3.org/1999/xlink" x="0px" y="0px"
     viewBox="70 40 160 100" style="enable-background:new 0 0 300 200;" xml:space="preserve">
<g id="SVG">
    <path style="fill:#52bad5;" d="M86,85v33h44V85H86z M117.148,91.922c1.621,0,2.936,1.3,2.936,2.905
        c0,1.604-1.314,2.905-2.936,2.905s-2.936-1.3-2.936-2.905C114.213,93.222,115.527,91.922,117.148,91.922z M91.034,114
        l10.998-14.758l10.13,9.945l5.499-4.465l8.248,9.279H91.034z"/>
    <path style="fill:#445a79;" d="M100,67v51h69V67H100z M149.067,77.435c2.511,0,4.546,2.014,4.546,4.498s-2.035,4.498-4.546,4.498
        c-2.511,0-4.546-2.014-4.546-4.498S146.556,77.435,149.067,77.435z M108.629,111l17.03-22.542l15.686,15.555l8.515-7.148
        L162.633,111H108.629z"/>
    <path style="fill:#52bad5;" d="M118,47v71h96V47H118z M185.422,60.831c3.51,0,6.355,2.815,6.355,6.287
        c0,3.472-2.845,6.287-6.355,6.287c-3.51,0-6.355-2.815-6.355-6.287C179.068,63.646,181.913,60.831,185.422,60.831z M128.897,109
        l23.806-32.135l21.926,21.431l11.903-9.523L204.386,109H128.897z"/>
</g>
</svg>
